<?xml version="1.0" encoding="UTF-8" standalone="no"?>
<!-- Created with Inkscape (http://www.inkscape.org/) -->

<svg
   width="137.00607mm"
   height="49.920574mm"
   viewBox="0 0 137.00607 49.920574"
   version="1.1"
   id="svg1"
   inkscape:version="1.3.2 (091e20e, 2023-11-25, custom)"
   sodipodi:docname="vector.svg"
   xmlns:inkscape="http://www.inkscape.org/namespaces/inkscape"
   xmlns:sodipodi="http://sodipodi.sourceforge.net/DTD/sodipodi-0.dtd"
   xmlns="http://www.w3.org/2000/svg"
   xmlns:svg="http://www.w3.org/2000/svg">
  <sodipodi:namedview
     id="namedview1"
     pagecolor="#ffffff"
     bordercolor="#000000"
     borderopacity="0.25"
     inkscape:showpageshadow="2"
     inkscape:pageopacity="0.0"
     inkscape:pagecheckerboard="0"
     inkscape:deskcolor="#d1d1d1"
     inkscape:document-units="mm"
     inkscape:zoom="0.69219276"
     inkscape:cx="405.23394"
     inkscape:cy="7.9457635"
     inkscape:window-width="1920"
     inkscape:window-height="991"
     inkscape:window-x="-9"
     inkscape:window-y="-9"
     inkscape:window-maximized="1"
     inkscape:current-layer="layer1" />
  <defs
     id="defs1" />
  <g
     inkscape:label="Capa 1"
     inkscape:groupmode="layer"
     id="layer1"
     transform="translate(-26.935874,-69.320686)">
    <path
       style="fill:none;stroke:#cf0101;stroke-width:1.165;stroke-linecap:round;paint-order:stroke markers fill"
       d="m 64.216216,73.772201 c -6.051484,-1.112808 -11.774705,-3.435485 -17.965251,-3.822396 -3.289781,-0.20561 -6.393841,0.284316 -9.555985,1.14672 -1.863116,-1.442405 -1.482585,0.876433 -2.293435,1.146718 -0.24175,0.08058 -0.552452,-0.141354 -0.764479,0 -0.237056,0.158035 -0.145185,0.606441 -0.382241,0.764479 -0.212026,0.141351 -0.55245,-0.141354 -0.764479,0 -0.237053,0.158035 -0.224203,0.527423 -0.382238,0.764479 -0.35338,0.530069 -0.696246,1.078484 -1.146718,1.528956 -0.450474,0.450474 -1.137838,0.64385 -1.528958,1.14672 -1.695024,2.179314 -1.911196,4.657891 -1.911196,7.262547 0,2.096024 -0.124526,4.080108 1.528958,5.73359 0.180189,0.180189 0.560618,-0.152895 0.764476,0 0.981337,0.736002 1.012907,1.73918 2.675676,2.293437 1.485048,0.495015 3.015853,0.382239 4.586875,0.382239 2.930501,0 5.861002,0 8.791503,0 1.855198,0 3.890394,-0.2304 5.733593,0 2.427956,0.303495 1.279596,0.371649 3.440154,0.764479 2.387103,0.43402 5.409385,0.512865 7.644786,1.528958 0.492115,0.223687 0.703869,0.836721 1.146718,1.146717 5.410099,3.091485 0.757348,0.121471 3.822395,2.675676 0.352918,0.294098 0.735823,0.55903 1.146718,0.764479 0.360378,0.180189 0.904967,0.05991 1.146717,0.382238 0.229344,0.305793 -0.212026,0.828683 0,1.146723 1.118706,1.67805 0.573014,-2.104054 1.14672,0.76447 0.324835,1.62418 0.803085,4.05021 0.382239,5.7336 -0.154512,0.61804 -0.91012,0.93745 -1.146718,1.52895 -0.09464,0.2366 0.131106,0.54597 0,0.76448 -1.566757,2.61126 -6.002504,3.00125 -8.409268,4.20463 -0.664503,0.33226 -1.232289,0.84499 -1.911196,1.14672 -2.205638,0.98029 -10.256867,2.20583 -12.613899,1.9112 -0.960348,-0.12004 -2.097567,-0.64444 -3.057914,-0.76448 -0.379288,-0.0474 -0.779188,0.10501 -1.14672,0 -1.69317,-0.48376 -3.328668,-1.63726 -4.969111,-2.29344 -0.873066,-0.34922 -2.097156,-0.98659 -3.057916,-1.14671 -1.39622,-0.23271 -2.057622,-0.14643 -3.057914,-1.14672"
       id="path2" />
    <path
       style="fill:none;stroke:#cf0101;stroke-width:1.165;stroke-linecap:round;paint-order:stroke markers fill"
       d="m 79.888029,74.918918 c 7.957955,20.690679 0.193955,-0.07993 6.498071,18.347489 0.704744,2.060025 1.604933,4.050324 2.293435,6.11583 0.873583,2.620753 1.262877,5.450633 2.293437,8.027023 0.345853,0.86464 0.922465,1.77867 1.146718,2.67568 0.09271,0.37083 -0.270283,0.87643 0,1.14672 0.01407,0.014 0.722487,0.42423 0.764479,0.38224 0.176696,-0.1767 -0.115393,-0.91593 0,-1.14672 0.08792,-0.17584 0.660775,-0.99117 0.764479,-1.14672 2.770415,-4.15562 0.202636,0.36734 3.440155,-3.82239 1.621126,-2.09793 3.204357,-4.23577 4.586867,-6.498071 1.42652,-2.334302 2.69037,-4.77208 3.8224,-7.262548 0.7838,-1.724355 1.2186,-3.588385 1.91119,-5.351351 0.76448,-1.783784 1.52896,-3.567567 2.29344,-5.351351 0.25483,-0.382241 0.58352,-0.724469 0.76448,-1.14672 0.45831,-1.069393 1.5182,-4.586872 3.05791,-4.586872"
       id="path3" />
    <path
       style="fill:none;stroke:#cf0101;stroke-width:1.165;stroke-linecap:round;paint-order:stroke markers fill"
       d="m 146.01544,78.359073 c -2.64677,0.0038 -5.73073,-0.917945 -8.40926,-0.382241 -3.07513,0.615027 -5.74747,2.752744 -8.40927,4.204634 -0.60236,0.32856 -1.3114,0.43126 -1.9112,0.764479 -1.53636,0.853536 -4.18405,4.16347 -4.96911,5.73359 -0.36038,0.720759 -0.43102,1.559835 -0.76448,2.293437 -0.30743,0.676347 -0.90129,1.209966 -1.14672,1.911197 -0.8922,2.54917 -2.35465,6.834028 -1.91119,9.938221 0.46095,3.22666 3.45414,6.32514 5.35135,8.79151 0.99485,1.29331 1.80442,2.77781 3.05791,3.82239 1.35982,1.13318 2.87917,2.20994 4.58688,2.67568 2.64018,0.72005 8.92652,0.66859 11.46718,0 1.10209,-0.29003 2.00314,-1.09746 3.05791,-1.52896 1.75311,-0.71718 3.62405,-1.13391 5.35135,-1.9112 2.29164,-1.03124 4.22428,-2.75237 6.49807,-3.82239 0.72913,-0.34312 1.61359,-0.33185 2.29344,-0.76448 1.06413,-0.67717 1.97602,-1.62619 2.67567,-2.67568 0.14136,-0.21202 -0.18019,-0.58429 0,-0.76447 0.0901,-0.0901 0.34195,0.12087 0.38224,0 0.50372,-1.51116 -0.46433,-3.34011 -1.91119,-3.8224 -0.24175,-0.0806 -0.52273,0.0806 -0.76448,0 -0.60438,-0.20145 -0.92458,-0.94526 -1.52896,-1.14672 -0.36262,-0.12087 -0.77918,0.10501 -1.14672,0 -1.94948,-0.55699 -0.94586,-0.85841 -2.67567,-1.14671 -0.75408,-0.12568 -1.53364,0.0844 -2.29344,0 -1.76873,-0.19653 -3.33205,-0.737454 -4.96911,-1.146723 -1.58707,-0.396766 -3.69007,0 -5.35135,0 -0.6378,0 -5.67708,0.05651 -5.73359,0 -0.0901,-0.09009 0,-0.254825 0,-0.382238"
       id="path4" />
  </g>
</svg>
